<mxfile host="app.diagrams.net" agent="Mozilla/5.0 (Windows NT 10.0; Win64; x64) AppleWebKit/537.36 (KHTML, like Gecko) Chrome/137.0.0.0 Safari/537.36 Edg/137.0.0.0" version="26.2.14">
  <diagram name="Page-1" id="Bv-Zz_YzzgBZ2n6DOQ8n">
    <mxGraphModel dx="1103" dy="444" grid="1" gridSize="10" guides="1" tooltips="1" connect="1" arrows="1" fold="1" page="1" pageScale="1" pageWidth="850" pageHeight="1100" math="0" shadow="0">
      <root>
        <mxCell id="0" />
        <mxCell id="1" parent="0" />
        <mxCell id="2" value="Ecosystem" style="shape=table;startSize=25;container=1;collapsible=0;childLayout=tableLayout;fixedRows=1;rowLines=1;fontStyle=1;align=center;resizeLast=1;" parent="1" vertex="1">
          <mxGeometry x="349" y="20" width="292" height="135" as="geometry" />
        </mxCell>
        <mxCell id="3" style="shape=tableRow;horizontal=0;startSize=0;swimlaneHead=0;swimlaneBody=0;fillColor=none;collapsible=0;dropTarget=0;points=[[0,0.5],[1,0.5]];portConstraint=eastwest;top=0;left=0;right=0;bottom=0;" parent="2" vertex="1">
          <mxGeometry y="25" width="292" height="22" as="geometry" />
        </mxCell>
        <mxCell id="4" value="int" style="shape=partialRectangle;connectable=0;fillColor=none;top=0;left=0;bottom=0;right=0;align=left;spacingLeft=2;overflow=hidden;fontSize=11;" parent="3" vertex="1">
          <mxGeometry width="51" height="22" as="geometry">
            <mxRectangle width="51" height="22" as="alternateBounds" />
          </mxGeometry>
        </mxCell>
        <mxCell id="5" value="id" style="shape=partialRectangle;connectable=0;fillColor=none;top=0;left=0;bottom=0;right=0;align=left;spacingLeft=2;overflow=hidden;fontSize=11;" parent="3" vertex="1">
          <mxGeometry x="51" width="51" height="22" as="geometry">
            <mxRectangle width="51" height="22" as="alternateBounds" />
          </mxGeometry>
        </mxCell>
        <mxCell id="6" value="PK" style="shape=partialRectangle;connectable=0;fillColor=none;top=0;left=0;bottom=0;right=0;align=left;spacingLeft=2;overflow=hidden;fontSize=11;" parent="3" vertex="1">
          <mxGeometry x="102" width="22" height="22" as="geometry">
            <mxRectangle width="22" height="22" as="alternateBounds" />
          </mxGeometry>
        </mxCell>
        <mxCell id="7" value="Primary Key" style="shape=partialRectangle;connectable=0;fillColor=none;top=0;left=0;bottom=0;right=0;align=left;spacingLeft=2;overflow=hidden;fontSize=11;" parent="3" vertex="1">
          <mxGeometry x="124" width="168" height="22" as="geometry">
            <mxRectangle width="168" height="22" as="alternateBounds" />
          </mxGeometry>
        </mxCell>
        <mxCell id="8" style="shape=tableRow;horizontal=0;startSize=0;swimlaneHead=0;swimlaneBody=0;fillColor=none;collapsible=0;dropTarget=0;points=[[0,0.5],[1,0.5]];portConstraint=eastwest;top=0;left=0;right=0;bottom=0;" parent="2" vertex="1">
          <mxGeometry y="47" width="292" height="22" as="geometry" />
        </mxCell>
        <mxCell id="9" value="string" style="shape=partialRectangle;connectable=0;fillColor=none;top=0;left=0;bottom=0;right=0;align=left;spacingLeft=2;overflow=hidden;fontSize=11;" parent="8" vertex="1">
          <mxGeometry width="51" height="22" as="geometry">
            <mxRectangle width="51" height="22" as="alternateBounds" />
          </mxGeometry>
        </mxCell>
        <mxCell id="10" value="name" style="shape=partialRectangle;connectable=0;fillColor=none;top=0;left=0;bottom=0;right=0;align=left;spacingLeft=2;overflow=hidden;fontSize=11;" parent="8" vertex="1">
          <mxGeometry x="51" width="51" height="22" as="geometry">
            <mxRectangle width="51" height="22" as="alternateBounds" />
          </mxGeometry>
        </mxCell>
        <mxCell id="11" value="" style="shape=partialRectangle;connectable=0;fillColor=none;top=0;left=0;bottom=0;right=0;align=left;spacingLeft=2;overflow=hidden;fontSize=11;" parent="8" vertex="1">
          <mxGeometry x="102" width="22" height="22" as="geometry">
            <mxRectangle width="22" height="22" as="alternateBounds" />
          </mxGeometry>
        </mxCell>
        <mxCell id="12" value="Ecosystem Name" style="shape=partialRectangle;connectable=0;fillColor=none;top=0;left=0;bottom=0;right=0;align=left;spacingLeft=2;overflow=hidden;fontSize=11;" parent="8" vertex="1">
          <mxGeometry x="124" width="168" height="22" as="geometry">
            <mxRectangle width="168" height="22" as="alternateBounds" />
          </mxGeometry>
        </mxCell>
        <mxCell id="13" style="shape=tableRow;horizontal=0;startSize=0;swimlaneHead=0;swimlaneBody=0;fillColor=none;collapsible=0;dropTarget=0;points=[[0,0.5],[1,0.5]];portConstraint=eastwest;top=0;left=0;right=0;bottom=0;" parent="2" vertex="1">
          <mxGeometry y="69" width="292" height="22" as="geometry" />
        </mxCell>
        <mxCell id="14" value="string" style="shape=partialRectangle;connectable=0;fillColor=none;top=0;left=0;bottom=0;right=0;align=left;spacingLeft=2;overflow=hidden;fontSize=11;" parent="13" vertex="1">
          <mxGeometry width="51" height="22" as="geometry">
            <mxRectangle width="51" height="22" as="alternateBounds" />
          </mxGeometry>
        </mxCell>
        <mxCell id="15" value="description" style="shape=partialRectangle;connectable=0;fillColor=none;top=0;left=0;bottom=0;right=0;align=left;spacingLeft=2;overflow=hidden;fontSize=11;" parent="13" vertex="1">
          <mxGeometry x="51" width="51" height="22" as="geometry">
            <mxRectangle width="51" height="22" as="alternateBounds" />
          </mxGeometry>
        </mxCell>
        <mxCell id="16" value="" style="shape=partialRectangle;connectable=0;fillColor=none;top=0;left=0;bottom=0;right=0;align=left;spacingLeft=2;overflow=hidden;fontSize=11;" parent="13" vertex="1">
          <mxGeometry x="102" width="22" height="22" as="geometry">
            <mxRectangle width="22" height="22" as="alternateBounds" />
          </mxGeometry>
        </mxCell>
        <mxCell id="17" value="Description of the ecosystem" style="shape=partialRectangle;connectable=0;fillColor=none;top=0;left=0;bottom=0;right=0;align=left;spacingLeft=2;overflow=hidden;fontSize=11;" parent="13" vertex="1">
          <mxGeometry x="124" width="168" height="22" as="geometry">
            <mxRectangle width="168" height="22" as="alternateBounds" />
          </mxGeometry>
        </mxCell>
        <mxCell id="18" style="shape=tableRow;horizontal=0;startSize=0;swimlaneHead=0;swimlaneBody=0;fillColor=none;collapsible=0;dropTarget=0;points=[[0,0.5],[1,0.5]];portConstraint=eastwest;top=0;left=0;right=0;bottom=0;" parent="2" vertex="1">
          <mxGeometry y="91" width="292" height="22" as="geometry" />
        </mxCell>
        <mxCell id="19" value="date" style="shape=partialRectangle;connectable=0;fillColor=none;top=0;left=0;bottom=0;right=0;align=left;spacingLeft=2;overflow=hidden;fontSize=11;" parent="18" vertex="1">
          <mxGeometry width="51" height="22" as="geometry">
            <mxRectangle width="51" height="22" as="alternateBounds" />
          </mxGeometry>
        </mxCell>
        <mxCell id="20" value="created_at" style="shape=partialRectangle;connectable=0;fillColor=none;top=0;left=0;bottom=0;right=0;align=left;spacingLeft=2;overflow=hidden;fontSize=11;" parent="18" vertex="1">
          <mxGeometry x="51" width="51" height="22" as="geometry">
            <mxRectangle width="51" height="22" as="alternateBounds" />
          </mxGeometry>
        </mxCell>
        <mxCell id="21" value="" style="shape=partialRectangle;connectable=0;fillColor=none;top=0;left=0;bottom=0;right=0;align=left;spacingLeft=2;overflow=hidden;fontSize=11;" parent="18" vertex="1">
          <mxGeometry x="102" width="22" height="22" as="geometry">
            <mxRectangle width="22" height="22" as="alternateBounds" />
          </mxGeometry>
        </mxCell>
        <mxCell id="22" value="Creation Date" style="shape=partialRectangle;connectable=0;fillColor=none;top=0;left=0;bottom=0;right=0;align=left;spacingLeft=2;overflow=hidden;fontSize=11;" parent="18" vertex="1">
          <mxGeometry x="124" width="168" height="22" as="geometry">
            <mxRectangle width="168" height="22" as="alternateBounds" />
          </mxGeometry>
        </mxCell>
        <mxCell id="23" style="shape=tableRow;horizontal=0;startSize=0;swimlaneHead=0;swimlaneBody=0;fillColor=none;collapsible=0;dropTarget=0;points=[[0,0.5],[1,0.5]];portConstraint=eastwest;top=0;left=0;right=0;bottom=0;" parent="2" vertex="1">
          <mxGeometry y="113" width="292" height="22" as="geometry" />
        </mxCell>
        <mxCell id="24" value="date" style="shape=partialRectangle;connectable=0;fillColor=none;top=0;left=0;bottom=0;right=0;align=left;spacingLeft=2;overflow=hidden;fontSize=11;" parent="23" vertex="1">
          <mxGeometry width="51" height="22" as="geometry">
            <mxRectangle width="51" height="22" as="alternateBounds" />
          </mxGeometry>
        </mxCell>
        <mxCell id="25" value="updated_at" style="shape=partialRectangle;connectable=0;fillColor=none;top=0;left=0;bottom=0;right=0;align=left;spacingLeft=2;overflow=hidden;fontSize=11;" parent="23" vertex="1">
          <mxGeometry x="51" width="51" height="22" as="geometry">
            <mxRectangle width="51" height="22" as="alternateBounds" />
          </mxGeometry>
        </mxCell>
        <mxCell id="26" value="" style="shape=partialRectangle;connectable=0;fillColor=none;top=0;left=0;bottom=0;right=0;align=left;spacingLeft=2;overflow=hidden;fontSize=11;" parent="23" vertex="1">
          <mxGeometry x="102" width="22" height="22" as="geometry">
            <mxRectangle width="22" height="22" as="alternateBounds" />
          </mxGeometry>
        </mxCell>
        <mxCell id="27" value="Last Update Date" style="shape=partialRectangle;connectable=0;fillColor=none;top=0;left=0;bottom=0;right=0;align=left;spacingLeft=2;overflow=hidden;fontSize=11;" parent="23" vertex="1">
          <mxGeometry x="124" width="168" height="22" as="geometry">
            <mxRectangle width="168" height="22" as="alternateBounds" />
          </mxGeometry>
        </mxCell>
        <mxCell id="28" value="Project" style="shape=table;startSize=25;container=1;collapsible=0;childLayout=tableLayout;fixedRows=1;rowLines=1;fontStyle=1;align=center;resizeLast=1;" parent="1" vertex="1">
          <mxGeometry x="344" y="254" width="304" height="156" as="geometry" />
        </mxCell>
        <mxCell id="29" style="shape=tableRow;horizontal=0;startSize=0;swimlaneHead=0;swimlaneBody=0;fillColor=none;collapsible=0;dropTarget=0;points=[[0,0.5],[1,0.5]];portConstraint=eastwest;top=0;left=0;right=0;bottom=0;" parent="28" vertex="1">
          <mxGeometry y="22" width="275" height="22" as="geometry" />
        </mxCell>
        <mxCell id="30" value="int" style="shape=partialRectangle;connectable=0;fillColor=none;top=0;left=0;bottom=0;right=0;align=left;spacingLeft=2;overflow=hidden;fontSize=11;" parent="29" vertex="1">
          <mxGeometry width="36" height="22" as="geometry" />
        </mxCell>
        <mxCell id="31" value="id" style="shape=partialRectangle;connectable=0;fillColor=none;top=0;left=0;bottom=0;right=0;align=left;spacingLeft=2;overflow=hidden;fontSize=11;" parent="29" vertex="1">
          <mxGeometry width="72" height="22" as="geometry" />
        </mxCell>
        <mxCell id="32" value="PK" style="shape=partialRectangle;connectable=0;fillColor=none;top=0;left=0;bottom=0;right=0;align=left;spacingLeft=2;overflow=hidden;fontSize=11;" parent="29" vertex="1">
          <mxGeometry width="22" height="22" as="geometry" />
        </mxCell>
        <mxCell id="33" value="Primary Key" style="shape=partialRectangle;connectable=0;fillColor=none;top=0;left=0;bottom=0;right=0;align=left;spacingLeft=2;overflow=hidden;fontSize=11;" parent="29" vertex="1">
          <mxGeometry width="174" height="22" as="geometry" />
        </mxCell>
        <mxCell id="34" style="shape=tableRow;horizontal=0;startSize=0;swimlaneHead=0;swimlaneBody=0;fillColor=none;collapsible=0;dropTarget=0;points=[[0,0.5],[1,0.5]];portConstraint=eastwest;top=0;left=0;right=0;bottom=0;" parent="28" vertex="1">
          <mxGeometry y="44" width="275" height="22" as="geometry" />
        </mxCell>
        <mxCell id="35" value="string" style="shape=partialRectangle;connectable=0;fillColor=none;top=0;left=0;bottom=0;right=0;align=left;spacingLeft=2;overflow=hidden;fontSize=11;" parent="34" vertex="1">
          <mxGeometry width="36" height="22" as="geometry" />
        </mxCell>
        <mxCell id="36" value="name" style="shape=partialRectangle;connectable=0;fillColor=none;top=0;left=0;bottom=0;right=0;align=left;spacingLeft=2;overflow=hidden;fontSize=11;" parent="34" vertex="1">
          <mxGeometry width="72" height="22" as="geometry" />
        </mxCell>
        <mxCell id="37" value="" style="shape=partialRectangle;connectable=0;fillColor=none;top=0;left=0;bottom=0;right=0;align=left;spacingLeft=2;overflow=hidden;fontSize=11;" parent="34" vertex="1">
          <mxGeometry width="22" height="22" as="geometry" />
        </mxCell>
        <mxCell id="38" value="Project Name" style="shape=partialRectangle;connectable=0;fillColor=none;top=0;left=0;bottom=0;right=0;align=left;spacingLeft=2;overflow=hidden;fontSize=11;" parent="34" vertex="1">
          <mxGeometry width="174" height="22" as="geometry" />
        </mxCell>
        <mxCell id="39" style="shape=tableRow;horizontal=0;startSize=0;swimlaneHead=0;swimlaneBody=0;fillColor=none;collapsible=0;dropTarget=0;points=[[0,0.5],[1,0.5]];portConstraint=eastwest;top=0;left=0;right=0;bottom=0;" parent="28" vertex="1">
          <mxGeometry y="66" width="275" height="22" as="geometry" />
        </mxCell>
        <mxCell id="40" value="string" style="shape=partialRectangle;connectable=0;fillColor=none;top=0;left=0;bottom=0;right=0;align=left;spacingLeft=2;overflow=hidden;fontSize=11;" parent="39" vertex="1">
          <mxGeometry width="36" height="22" as="geometry" />
        </mxCell>
        <mxCell id="41" value="status" style="shape=partialRectangle;connectable=0;fillColor=none;top=0;left=0;bottom=0;right=0;align=left;spacingLeft=2;overflow=hidden;fontSize=11;" parent="39" vertex="1">
          <mxGeometry width="72" height="22" as="geometry" />
        </mxCell>
        <mxCell id="42" value="" style="shape=partialRectangle;connectable=0;fillColor=none;top=0;left=0;bottom=0;right=0;align=left;spacingLeft=2;overflow=hidden;fontSize=11;" parent="39" vertex="1">
          <mxGeometry width="22" height="22" as="geometry" />
        </mxCell>
        <mxCell id="43" value="Current Status of the Project" style="shape=partialRectangle;connectable=0;fillColor=none;top=0;left=0;bottom=0;right=0;align=left;spacingLeft=2;overflow=hidden;fontSize=11;" parent="39" vertex="1">
          <mxGeometry width="174" height="22" as="geometry" />
        </mxCell>
        <mxCell id="44" style="shape=tableRow;horizontal=0;startSize=0;swimlaneHead=0;swimlaneBody=0;fillColor=none;collapsible=0;dropTarget=0;points=[[0,0.5],[1,0.5]];portConstraint=eastwest;top=0;left=0;right=0;bottom=0;" parent="28" vertex="1">
          <mxGeometry y="87" width="275" height="22" as="geometry" />
        </mxCell>
        <mxCell id="45" value="int" style="shape=partialRectangle;connectable=0;fillColor=none;top=0;left=0;bottom=0;right=0;align=left;spacingLeft=2;overflow=hidden;fontSize=11;" parent="44" vertex="1">
          <mxGeometry width="36" height="22" as="geometry" />
        </mxCell>
        <mxCell id="46" value="ecosystem_id" style="shape=partialRectangle;connectable=0;fillColor=none;top=0;left=0;bottom=0;right=0;align=left;spacingLeft=2;overflow=hidden;fontSize=11;" parent="44" vertex="1">
          <mxGeometry width="72" height="22" as="geometry" />
        </mxCell>
        <mxCell id="47" value="FK" style="shape=partialRectangle;connectable=0;fillColor=none;top=0;left=0;bottom=0;right=0;align=left;spacingLeft=2;overflow=hidden;fontSize=11;" parent="44" vertex="1">
          <mxGeometry width="22" height="22" as="geometry" />
        </mxCell>
        <mxCell id="48" value="Foreign Key to Ecosystem" style="shape=partialRectangle;connectable=0;fillColor=none;top=0;left=0;bottom=0;right=0;align=left;spacingLeft=2;overflow=hidden;fontSize=11;" parent="44" vertex="1">
          <mxGeometry width="174" height="22" as="geometry" />
        </mxCell>
        <mxCell id="49" style="shape=tableRow;horizontal=0;startSize=0;swimlaneHead=0;swimlaneBody=0;fillColor=none;collapsible=0;dropTarget=0;points=[[0,0.5],[1,0.5]];portConstraint=eastwest;top=0;left=0;right=0;bottom=0;" parent="28" vertex="1">
          <mxGeometry y="109" width="275" height="22" as="geometry" />
        </mxCell>
        <mxCell id="50" value="date" style="shape=partialRectangle;connectable=0;fillColor=none;top=0;left=0;bottom=0;right=0;align=left;spacingLeft=2;overflow=hidden;fontSize=11;" parent="49" vertex="1">
          <mxGeometry width="36" height="22" as="geometry" />
        </mxCell>
        <mxCell id="51" value="created_at" style="shape=partialRectangle;connectable=0;fillColor=none;top=0;left=0;bottom=0;right=0;align=left;spacingLeft=2;overflow=hidden;fontSize=11;" parent="49" vertex="1">
          <mxGeometry width="72" height="22" as="geometry" />
        </mxCell>
        <mxCell id="52" value="" style="shape=partialRectangle;connectable=0;fillColor=none;top=0;left=0;bottom=0;right=0;align=left;spacingLeft=2;overflow=hidden;fontSize=11;" parent="49" vertex="1">
          <mxGeometry width="22" height="22" as="geometry" />
        </mxCell>
        <mxCell id="53" value="Creation Date" style="shape=partialRectangle;connectable=0;fillColor=none;top=0;left=0;bottom=0;right=0;align=left;spacingLeft=2;overflow=hidden;fontSize=11;" parent="49" vertex="1">
          <mxGeometry width="174" height="22" as="geometry" />
        </mxCell>
        <mxCell id="54" style="shape=tableRow;horizontal=0;startSize=0;swimlaneHead=0;swimlaneBody=0;fillColor=none;collapsible=0;dropTarget=0;points=[[0,0.5],[1,0.5]];portConstraint=eastwest;top=0;left=0;right=0;bottom=0;" parent="28" vertex="1">
          <mxGeometry y="131" width="275" height="22" as="geometry" />
        </mxCell>
        <mxCell id="55" value="date" style="shape=partialRectangle;connectable=0;fillColor=none;top=0;left=0;bottom=0;right=0;align=left;spacingLeft=2;overflow=hidden;fontSize=11;" parent="54" vertex="1">
          <mxGeometry width="36" height="22" as="geometry" />
        </mxCell>
        <mxCell id="56" value="updated_at" style="shape=partialRectangle;connectable=0;fillColor=none;top=0;left=0;bottom=0;right=0;align=left;spacingLeft=2;overflow=hidden;fontSize=11;" parent="54" vertex="1">
          <mxGeometry width="72" height="22" as="geometry" />
        </mxCell>
        <mxCell id="57" value="" style="shape=partialRectangle;connectable=0;fillColor=none;top=0;left=0;bottom=0;right=0;align=left;spacingLeft=2;overflow=hidden;fontSize=11;" parent="54" vertex="1">
          <mxGeometry width="22" height="22" as="geometry" />
        </mxCell>
        <mxCell id="58" value="Last Update Date" style="shape=partialRectangle;connectable=0;fillColor=none;top=0;left=0;bottom=0;right=0;align=left;spacingLeft=2;overflow=hidden;fontSize=11;" parent="54" vertex="1">
          <mxGeometry width="174" height="22" as="geometry" />
        </mxCell>
        <mxCell id="59" value="Software" style="shape=table;startSize=25;container=1;collapsible=0;childLayout=tableLayout;fixedRows=1;rowLines=1;fontStyle=1;align=center;resizeLast=1;" parent="1" vertex="1">
          <mxGeometry x="20" y="510" width="250" height="156" as="geometry" />
        </mxCell>
        <mxCell id="60" style="shape=tableRow;horizontal=0;startSize=0;swimlaneHead=0;swimlaneBody=0;fillColor=none;collapsible=0;dropTarget=0;points=[[0,0.5],[1,0.5]];portConstraint=eastwest;top=0;left=0;right=0;bottom=0;" parent="59" vertex="1">
          <mxGeometry y="22" width="235" height="22" as="geometry" />
        </mxCell>
        <mxCell id="61" value="int" style="shape=partialRectangle;connectable=0;fillColor=none;top=0;left=0;bottom=0;right=0;align=left;spacingLeft=2;overflow=hidden;fontSize=11;" parent="60" vertex="1">
          <mxGeometry width="36" height="22" as="geometry" />
        </mxCell>
        <mxCell id="62" value="id" style="shape=partialRectangle;connectable=0;fillColor=none;top=0;left=0;bottom=0;right=0;align=left;spacingLeft=2;overflow=hidden;fontSize=11;" parent="60" vertex="1">
          <mxGeometry width="60" height="22" as="geometry" />
        </mxCell>
        <mxCell id="63" value="PK" style="shape=partialRectangle;connectable=0;fillColor=none;top=0;left=0;bottom=0;right=0;align=left;spacingLeft=2;overflow=hidden;fontSize=11;" parent="60" vertex="1">
          <mxGeometry width="22" height="22" as="geometry" />
        </mxCell>
        <mxCell id="64" value="Primary Key" style="shape=partialRectangle;connectable=0;fillColor=none;top=0;left=0;bottom=0;right=0;align=left;spacingLeft=2;overflow=hidden;fontSize=11;" parent="60" vertex="1">
          <mxGeometry width="132" height="22" as="geometry" />
        </mxCell>
        <mxCell id="65" style="shape=tableRow;horizontal=0;startSize=0;swimlaneHead=0;swimlaneBody=0;fillColor=none;collapsible=0;dropTarget=0;points=[[0,0.5],[1,0.5]];portConstraint=eastwest;top=0;left=0;right=0;bottom=0;" parent="59" vertex="1">
          <mxGeometry y="44" width="235" height="22" as="geometry" />
        </mxCell>
        <mxCell id="66" value="string" style="shape=partialRectangle;connectable=0;fillColor=none;top=0;left=0;bottom=0;right=0;align=left;spacingLeft=2;overflow=hidden;fontSize=11;" parent="65" vertex="1">
          <mxGeometry width="36" height="22" as="geometry" />
        </mxCell>
        <mxCell id="67" value="name" style="shape=partialRectangle;connectable=0;fillColor=none;top=0;left=0;bottom=0;right=0;align=left;spacingLeft=2;overflow=hidden;fontSize=11;" parent="65" vertex="1">
          <mxGeometry width="60" height="22" as="geometry" />
        </mxCell>
        <mxCell id="68" value="" style="shape=partialRectangle;connectable=0;fillColor=none;top=0;left=0;bottom=0;right=0;align=left;spacingLeft=2;overflow=hidden;fontSize=11;" parent="65" vertex="1">
          <mxGeometry width="22" height="22" as="geometry" />
        </mxCell>
        <mxCell id="69" value="Software Name" style="shape=partialRectangle;connectable=0;fillColor=none;top=0;left=0;bottom=0;right=0;align=left;spacingLeft=2;overflow=hidden;fontSize=11;" parent="65" vertex="1">
          <mxGeometry width="132" height="22" as="geometry" />
        </mxCell>
        <mxCell id="70" style="shape=tableRow;horizontal=0;startSize=0;swimlaneHead=0;swimlaneBody=0;fillColor=none;collapsible=0;dropTarget=0;points=[[0,0.5],[1,0.5]];portConstraint=eastwest;top=0;left=0;right=0;bottom=0;" parent="59" vertex="1">
          <mxGeometry y="66" width="235" height="22" as="geometry" />
        </mxCell>
        <mxCell id="71" value="string" style="shape=partialRectangle;connectable=0;fillColor=none;top=0;left=0;bottom=0;right=0;align=left;spacingLeft=2;overflow=hidden;fontSize=11;" parent="70" vertex="1">
          <mxGeometry width="36" height="22" as="geometry" />
        </mxCell>
        <mxCell id="72" value="version" style="shape=partialRectangle;connectable=0;fillColor=none;top=0;left=0;bottom=0;right=0;align=left;spacingLeft=2;overflow=hidden;fontSize=11;" parent="70" vertex="1">
          <mxGeometry width="60" height="22" as="geometry" />
        </mxCell>
        <mxCell id="73" value="" style="shape=partialRectangle;connectable=0;fillColor=none;top=0;left=0;bottom=0;right=0;align=left;spacingLeft=2;overflow=hidden;fontSize=11;" parent="70" vertex="1">
          <mxGeometry width="22" height="22" as="geometry" />
        </mxCell>
        <mxCell id="74" value="Software Version" style="shape=partialRectangle;connectable=0;fillColor=none;top=0;left=0;bottom=0;right=0;align=left;spacingLeft=2;overflow=hidden;fontSize=11;" parent="70" vertex="1">
          <mxGeometry width="132" height="22" as="geometry" />
        </mxCell>
        <mxCell id="75" style="shape=tableRow;horizontal=0;startSize=0;swimlaneHead=0;swimlaneBody=0;fillColor=none;collapsible=0;dropTarget=0;points=[[0,0.5],[1,0.5]];portConstraint=eastwest;top=0;left=0;right=0;bottom=0;" parent="59" vertex="1">
          <mxGeometry y="87" width="235" height="22" as="geometry" />
        </mxCell>
        <mxCell id="76" value="int" style="shape=partialRectangle;connectable=0;fillColor=none;top=0;left=0;bottom=0;right=0;align=left;spacingLeft=2;overflow=hidden;fontSize=11;" parent="75" vertex="1">
          <mxGeometry width="36" height="22" as="geometry" />
        </mxCell>
        <mxCell id="77" value="project_id" style="shape=partialRectangle;connectable=0;fillColor=none;top=0;left=0;bottom=0;right=0;align=left;spacingLeft=2;overflow=hidden;fontSize=11;" parent="75" vertex="1">
          <mxGeometry width="60" height="22" as="geometry" />
        </mxCell>
        <mxCell id="78" value="FK" style="shape=partialRectangle;connectable=0;fillColor=none;top=0;left=0;bottom=0;right=0;align=left;spacingLeft=2;overflow=hidden;fontSize=11;" parent="75" vertex="1">
          <mxGeometry width="22" height="22" as="geometry" />
        </mxCell>
        <mxCell id="79" value="Foreign Key to Project" style="shape=partialRectangle;connectable=0;fillColor=none;top=0;left=0;bottom=0;right=0;align=left;spacingLeft=2;overflow=hidden;fontSize=11;" parent="75" vertex="1">
          <mxGeometry width="132" height="22" as="geometry" />
        </mxCell>
        <mxCell id="80" style="shape=tableRow;horizontal=0;startSize=0;swimlaneHead=0;swimlaneBody=0;fillColor=none;collapsible=0;dropTarget=0;points=[[0,0.5],[1,0.5]];portConstraint=eastwest;top=0;left=0;right=0;bottom=0;" parent="59" vertex="1">
          <mxGeometry y="109" width="235" height="22" as="geometry" />
        </mxCell>
        <mxCell id="81" value="date" style="shape=partialRectangle;connectable=0;fillColor=none;top=0;left=0;bottom=0;right=0;align=left;spacingLeft=2;overflow=hidden;fontSize=11;" parent="80" vertex="1">
          <mxGeometry width="36" height="22" as="geometry" />
        </mxCell>
        <mxCell id="82" value="created_at" style="shape=partialRectangle;connectable=0;fillColor=none;top=0;left=0;bottom=0;right=0;align=left;spacingLeft=2;overflow=hidden;fontSize=11;" parent="80" vertex="1">
          <mxGeometry width="60" height="22" as="geometry" />
        </mxCell>
        <mxCell id="83" value="" style="shape=partialRectangle;connectable=0;fillColor=none;top=0;left=0;bottom=0;right=0;align=left;spacingLeft=2;overflow=hidden;fontSize=11;" parent="80" vertex="1">
          <mxGeometry width="22" height="22" as="geometry" />
        </mxCell>
        <mxCell id="84" value="Creation Date" style="shape=partialRectangle;connectable=0;fillColor=none;top=0;left=0;bottom=0;right=0;align=left;spacingLeft=2;overflow=hidden;fontSize=11;" parent="80" vertex="1">
          <mxGeometry width="132" height="22" as="geometry" />
        </mxCell>
        <mxCell id="85" style="shape=tableRow;horizontal=0;startSize=0;swimlaneHead=0;swimlaneBody=0;fillColor=none;collapsible=0;dropTarget=0;points=[[0,0.5],[1,0.5]];portConstraint=eastwest;top=0;left=0;right=0;bottom=0;" parent="59" vertex="1">
          <mxGeometry y="131" width="235" height="22" as="geometry" />
        </mxCell>
        <mxCell id="86" value="date" style="shape=partialRectangle;connectable=0;fillColor=none;top=0;left=0;bottom=0;right=0;align=left;spacingLeft=2;overflow=hidden;fontSize=11;" parent="85" vertex="1">
          <mxGeometry width="36" height="22" as="geometry" />
        </mxCell>
        <mxCell id="87" value="updated_at" style="shape=partialRectangle;connectable=0;fillColor=none;top=0;left=0;bottom=0;right=0;align=left;spacingLeft=2;overflow=hidden;fontSize=11;" parent="85" vertex="1">
          <mxGeometry width="60" height="22" as="geometry" />
        </mxCell>
        <mxCell id="88" value="" style="shape=partialRectangle;connectable=0;fillColor=none;top=0;left=0;bottom=0;right=0;align=left;spacingLeft=2;overflow=hidden;fontSize=11;" parent="85" vertex="1">
          <mxGeometry width="22" height="22" as="geometry" />
        </mxCell>
        <mxCell id="89" value="Last Update Date" style="shape=partialRectangle;connectable=0;fillColor=none;top=0;left=0;bottom=0;right=0;align=left;spacingLeft=2;overflow=hidden;fontSize=11;" parent="85" vertex="1">
          <mxGeometry width="132" height="22" as="geometry" />
        </mxCell>
        <mxCell id="90" value="User" style="shape=table;startSize=25;container=1;collapsible=0;childLayout=tableLayout;fixedRows=1;rowLines=1;fontStyle=1;align=center;resizeLast=1;" parent="1" vertex="1">
          <mxGeometry x="708" y="510" width="262" height="156" as="geometry" />
        </mxCell>
        <mxCell id="91" style="shape=tableRow;horizontal=0;startSize=0;swimlaneHead=0;swimlaneBody=0;fillColor=none;collapsible=0;dropTarget=0;points=[[0,0.5],[1,0.5]];portConstraint=eastwest;top=0;left=0;right=0;bottom=0;" parent="90" vertex="1">
          <mxGeometry y="22" width="242" height="22" as="geometry" />
        </mxCell>
        <mxCell id="92" value="int" style="shape=partialRectangle;connectable=0;fillColor=none;top=0;left=0;bottom=0;right=0;align=left;spacingLeft=2;overflow=hidden;fontSize=11;" parent="91" vertex="1">
          <mxGeometry width="36" height="22" as="geometry" />
        </mxCell>
        <mxCell id="93" value="id" style="shape=partialRectangle;connectable=0;fillColor=none;top=0;left=0;bottom=0;right=0;align=left;spacingLeft=2;overflow=hidden;fontSize=11;" parent="91" vertex="1">
          <mxGeometry width="60" height="22" as="geometry" />
        </mxCell>
        <mxCell id="94" value="PK" style="shape=partialRectangle;connectable=0;fillColor=none;top=0;left=0;bottom=0;right=0;align=left;spacingLeft=2;overflow=hidden;fontSize=11;" parent="91" vertex="1">
          <mxGeometry width="22" height="22" as="geometry" />
        </mxCell>
        <mxCell id="95" value="Primary Key" style="shape=partialRectangle;connectable=0;fillColor=none;top=0;left=0;bottom=0;right=0;align=left;spacingLeft=2;overflow=hidden;fontSize=11;" parent="91" vertex="1">
          <mxGeometry width="144" height="22" as="geometry" />
        </mxCell>
        <mxCell id="96" style="shape=tableRow;horizontal=0;startSize=0;swimlaneHead=0;swimlaneBody=0;fillColor=none;collapsible=0;dropTarget=0;points=[[0,0.5],[1,0.5]];portConstraint=eastwest;top=0;left=0;right=0;bottom=0;" parent="90" vertex="1">
          <mxGeometry y="44" width="242" height="22" as="geometry" />
        </mxCell>
        <mxCell id="97" value="string" style="shape=partialRectangle;connectable=0;fillColor=none;top=0;left=0;bottom=0;right=0;align=left;spacingLeft=2;overflow=hidden;fontSize=11;" parent="96" vertex="1">
          <mxGeometry width="36" height="22" as="geometry" />
        </mxCell>
        <mxCell id="98" value="username" style="shape=partialRectangle;connectable=0;fillColor=none;top=0;left=0;bottom=0;right=0;align=left;spacingLeft=2;overflow=hidden;fontSize=11;" parent="96" vertex="1">
          <mxGeometry width="60" height="22" as="geometry" />
        </mxCell>
        <mxCell id="99" value="" style="shape=partialRectangle;connectable=0;fillColor=none;top=0;left=0;bottom=0;right=0;align=left;spacingLeft=2;overflow=hidden;fontSize=11;" parent="96" vertex="1">
          <mxGeometry width="22" height="22" as="geometry" />
        </mxCell>
        <mxCell id="100" value="User Name" style="shape=partialRectangle;connectable=0;fillColor=none;top=0;left=0;bottom=0;right=0;align=left;spacingLeft=2;overflow=hidden;fontSize=11;" parent="96" vertex="1">
          <mxGeometry width="144" height="22" as="geometry" />
        </mxCell>
        <mxCell id="101" style="shape=tableRow;horizontal=0;startSize=0;swimlaneHead=0;swimlaneBody=0;fillColor=none;collapsible=0;dropTarget=0;points=[[0,0.5],[1,0.5]];portConstraint=eastwest;top=0;left=0;right=0;bottom=0;" parent="90" vertex="1">
          <mxGeometry y="66" width="242" height="22" as="geometry" />
        </mxCell>
        <mxCell id="102" value="string" style="shape=partialRectangle;connectable=0;fillColor=none;top=0;left=0;bottom=0;right=0;align=left;spacingLeft=2;overflow=hidden;fontSize=11;" parent="101" vertex="1">
          <mxGeometry width="36" height="22" as="geometry" />
        </mxCell>
        <mxCell id="103" value="role" style="shape=partialRectangle;connectable=0;fillColor=none;top=0;left=0;bottom=0;right=0;align=left;spacingLeft=2;overflow=hidden;fontSize=11;" parent="101" vertex="1">
          <mxGeometry width="60" height="22" as="geometry" />
        </mxCell>
        <mxCell id="104" value="" style="shape=partialRectangle;connectable=0;fillColor=none;top=0;left=0;bottom=0;right=0;align=left;spacingLeft=2;overflow=hidden;fontSize=11;" parent="101" vertex="1">
          <mxGeometry width="22" height="22" as="geometry" />
        </mxCell>
        <mxCell id="105" value="User Role in the Project" style="shape=partialRectangle;connectable=0;fillColor=none;top=0;left=0;bottom=0;right=0;align=left;spacingLeft=2;overflow=hidden;fontSize=11;" parent="101" vertex="1">
          <mxGeometry width="144" height="22" as="geometry" />
        </mxCell>
        <mxCell id="106" style="shape=tableRow;horizontal=0;startSize=0;swimlaneHead=0;swimlaneBody=0;fillColor=none;collapsible=0;dropTarget=0;points=[[0,0.5],[1,0.5]];portConstraint=eastwest;top=0;left=0;right=0;bottom=0;" parent="90" vertex="1">
          <mxGeometry y="87" width="242" height="22" as="geometry" />
        </mxCell>
        <mxCell id="107" value="int" style="shape=partialRectangle;connectable=0;fillColor=none;top=0;left=0;bottom=0;right=0;align=left;spacingLeft=2;overflow=hidden;fontSize=11;" parent="106" vertex="1">
          <mxGeometry width="36" height="22" as="geometry" />
        </mxCell>
        <mxCell id="108" value="project_id" style="shape=partialRectangle;connectable=0;fillColor=none;top=0;left=0;bottom=0;right=0;align=left;spacingLeft=2;overflow=hidden;fontSize=11;" parent="106" vertex="1">
          <mxGeometry width="60" height="22" as="geometry" />
        </mxCell>
        <mxCell id="109" value="FK" style="shape=partialRectangle;connectable=0;fillColor=none;top=0;left=0;bottom=0;right=0;align=left;spacingLeft=2;overflow=hidden;fontSize=11;" parent="106" vertex="1">
          <mxGeometry width="22" height="22" as="geometry" />
        </mxCell>
        <mxCell id="110" value="Foreign Key to Project" style="shape=partialRectangle;connectable=0;fillColor=none;top=0;left=0;bottom=0;right=0;align=left;spacingLeft=2;overflow=hidden;fontSize=11;" parent="106" vertex="1">
          <mxGeometry width="144" height="22" as="geometry" />
        </mxCell>
        <mxCell id="111" style="shape=tableRow;horizontal=0;startSize=0;swimlaneHead=0;swimlaneBody=0;fillColor=none;collapsible=0;dropTarget=0;points=[[0,0.5],[1,0.5]];portConstraint=eastwest;top=0;left=0;right=0;bottom=0;" parent="90" vertex="1">
          <mxGeometry y="109" width="242" height="22" as="geometry" />
        </mxCell>
        <mxCell id="112" value="date" style="shape=partialRectangle;connectable=0;fillColor=none;top=0;left=0;bottom=0;right=0;align=left;spacingLeft=2;overflow=hidden;fontSize=11;" parent="111" vertex="1">
          <mxGeometry width="36" height="22" as="geometry" />
        </mxCell>
        <mxCell id="113" value="created_at" style="shape=partialRectangle;connectable=0;fillColor=none;top=0;left=0;bottom=0;right=0;align=left;spacingLeft=2;overflow=hidden;fontSize=11;" parent="111" vertex="1">
          <mxGeometry width="60" height="22" as="geometry" />
        </mxCell>
        <mxCell id="114" value="" style="shape=partialRectangle;connectable=0;fillColor=none;top=0;left=0;bottom=0;right=0;align=left;spacingLeft=2;overflow=hidden;fontSize=11;" parent="111" vertex="1">
          <mxGeometry width="22" height="22" as="geometry" />
        </mxCell>
        <mxCell id="115" value="Creation Date" style="shape=partialRectangle;connectable=0;fillColor=none;top=0;left=0;bottom=0;right=0;align=left;spacingLeft=2;overflow=hidden;fontSize=11;" parent="111" vertex="1">
          <mxGeometry width="144" height="22" as="geometry" />
        </mxCell>
        <mxCell id="116" style="shape=tableRow;horizontal=0;startSize=0;swimlaneHead=0;swimlaneBody=0;fillColor=none;collapsible=0;dropTarget=0;points=[[0,0.5],[1,0.5]];portConstraint=eastwest;top=0;left=0;right=0;bottom=0;" parent="90" vertex="1">
          <mxGeometry y="131" width="242" height="22" as="geometry" />
        </mxCell>
        <mxCell id="117" value="date" style="shape=partialRectangle;connectable=0;fillColor=none;top=0;left=0;bottom=0;right=0;align=left;spacingLeft=2;overflow=hidden;fontSize=11;" parent="116" vertex="1">
          <mxGeometry width="36" height="22" as="geometry" />
        </mxCell>
        <mxCell id="118" value="updated_at" style="shape=partialRectangle;connectable=0;fillColor=none;top=0;left=0;bottom=0;right=0;align=left;spacingLeft=2;overflow=hidden;fontSize=11;" parent="116" vertex="1">
          <mxGeometry width="60" height="22" as="geometry" />
        </mxCell>
        <mxCell id="119" value="" style="shape=partialRectangle;connectable=0;fillColor=none;top=0;left=0;bottom=0;right=0;align=left;spacingLeft=2;overflow=hidden;fontSize=11;" parent="116" vertex="1">
          <mxGeometry width="22" height="22" as="geometry" />
        </mxCell>
        <mxCell id="120" value="Last Update Date" style="shape=partialRectangle;connectable=0;fillColor=none;top=0;left=0;bottom=0;right=0;align=left;spacingLeft=2;overflow=hidden;fontSize=11;" parent="116" vertex="1">
          <mxGeometry width="144" height="22" as="geometry" />
        </mxCell>
        <mxCell id="121" value="Feature" style="shape=table;startSize=25;container=1;collapsible=0;childLayout=tableLayout;fixedRows=1;rowLines=1;fontStyle=1;align=center;resizeLast=1;" parent="1" vertex="1">
          <mxGeometry x="355" y="510" width="280" height="156" as="geometry" />
        </mxCell>
        <mxCell id="122" style="shape=tableRow;horizontal=0;startSize=0;swimlaneHead=0;swimlaneBody=0;fillColor=none;collapsible=0;dropTarget=0;points=[[0,0.5],[1,0.5]];portConstraint=eastwest;top=0;left=0;right=0;bottom=0;" parent="121" vertex="1">
          <mxGeometry y="22" width="252" height="22" as="geometry" />
        </mxCell>
        <mxCell id="123" value="int" style="shape=partialRectangle;connectable=0;fillColor=none;top=0;left=0;bottom=0;right=0;align=left;spacingLeft=2;overflow=hidden;fontSize=11;" parent="122" vertex="1">
          <mxGeometry width="36" height="22" as="geometry" />
        </mxCell>
        <mxCell id="124" value="id" style="shape=partialRectangle;connectable=0;fillColor=none;top=0;left=0;bottom=0;right=0;align=left;spacingLeft=2;overflow=hidden;fontSize=11;" parent="122" vertex="1">
          <mxGeometry width="66" height="22" as="geometry" />
        </mxCell>
        <mxCell id="125" value="PK" style="shape=partialRectangle;connectable=0;fillColor=none;top=0;left=0;bottom=0;right=0;align=left;spacingLeft=2;overflow=hidden;fontSize=11;" parent="122" vertex="1">
          <mxGeometry width="22" height="22" as="geometry" />
        </mxCell>
        <mxCell id="126" value="Primary Key" style="shape=partialRectangle;connectable=0;fillColor=none;top=0;left=0;bottom=0;right=0;align=left;spacingLeft=2;overflow=hidden;fontSize=11;" parent="122" vertex="1">
          <mxGeometry width="156" height="22" as="geometry" />
        </mxCell>
        <mxCell id="127" style="shape=tableRow;horizontal=0;startSize=0;swimlaneHead=0;swimlaneBody=0;fillColor=none;collapsible=0;dropTarget=0;points=[[0,0.5],[1,0.5]];portConstraint=eastwest;top=0;left=0;right=0;bottom=0;" parent="121" vertex="1">
          <mxGeometry y="44" width="252" height="22" as="geometry" />
        </mxCell>
        <mxCell id="128" value="string" style="shape=partialRectangle;connectable=0;fillColor=none;top=0;left=0;bottom=0;right=0;align=left;spacingLeft=2;overflow=hidden;fontSize=11;" parent="127" vertex="1">
          <mxGeometry width="36" height="22" as="geometry" />
        </mxCell>
        <mxCell id="129" value="description" style="shape=partialRectangle;connectable=0;fillColor=none;top=0;left=0;bottom=0;right=0;align=left;spacingLeft=2;overflow=hidden;fontSize=11;" parent="127" vertex="1">
          <mxGeometry width="66" height="22" as="geometry" />
        </mxCell>
        <mxCell id="130" value="" style="shape=partialRectangle;connectable=0;fillColor=none;top=0;left=0;bottom=0;right=0;align=left;spacingLeft=2;overflow=hidden;fontSize=11;" parent="127" vertex="1">
          <mxGeometry width="22" height="22" as="geometry" />
        </mxCell>
        <mxCell id="131" value="Description of the feature" style="shape=partialRectangle;connectable=0;fillColor=none;top=0;left=0;bottom=0;right=0;align=left;spacingLeft=2;overflow=hidden;fontSize=11;" parent="127" vertex="1">
          <mxGeometry width="156" height="22" as="geometry" />
        </mxCell>
        <mxCell id="132" style="shape=tableRow;horizontal=0;startSize=0;swimlaneHead=0;swimlaneBody=0;fillColor=none;collapsible=0;dropTarget=0;points=[[0,0.5],[1,0.5]];portConstraint=eastwest;top=0;left=0;right=0;bottom=0;" parent="121" vertex="1">
          <mxGeometry y="66" width="252" height="22" as="geometry" />
        </mxCell>
        <mxCell id="133" value="string" style="shape=partialRectangle;connectable=0;fillColor=none;top=0;left=0;bottom=0;right=0;align=left;spacingLeft=2;overflow=hidden;fontSize=11;" parent="132" vertex="1">
          <mxGeometry width="36" height="22" as="geometry" />
        </mxCell>
        <mxCell id="134" value="status" style="shape=partialRectangle;connectable=0;fillColor=none;top=0;left=0;bottom=0;right=0;align=left;spacingLeft=2;overflow=hidden;fontSize=11;" parent="132" vertex="1">
          <mxGeometry width="66" height="22" as="geometry" />
        </mxCell>
        <mxCell id="135" value="" style="shape=partialRectangle;connectable=0;fillColor=none;top=0;left=0;bottom=0;right=0;align=left;spacingLeft=2;overflow=hidden;fontSize=11;" parent="132" vertex="1">
          <mxGeometry width="22" height="22" as="geometry" />
        </mxCell>
        <mxCell id="136" value="Feature Status" style="shape=partialRectangle;connectable=0;fillColor=none;top=0;left=0;bottom=0;right=0;align=left;spacingLeft=2;overflow=hidden;fontSize=11;" parent="132" vertex="1">
          <mxGeometry width="156" height="22" as="geometry" />
        </mxCell>
        <mxCell id="137" style="shape=tableRow;horizontal=0;startSize=0;swimlaneHead=0;swimlaneBody=0;fillColor=none;collapsible=0;dropTarget=0;points=[[0,0.5],[1,0.5]];portConstraint=eastwest;top=0;left=0;right=0;bottom=0;" parent="121" vertex="1">
          <mxGeometry y="87" width="252" height="22" as="geometry" />
        </mxCell>
        <mxCell id="138" value="int" style="shape=partialRectangle;connectable=0;fillColor=none;top=0;left=0;bottom=0;right=0;align=left;spacingLeft=2;overflow=hidden;fontSize=11;" parent="137" vertex="1">
          <mxGeometry width="36" height="22" as="geometry" />
        </mxCell>
        <mxCell id="139" value="project_id" style="shape=partialRectangle;connectable=0;fillColor=none;top=0;left=0;bottom=0;right=0;align=left;spacingLeft=2;overflow=hidden;fontSize=11;" parent="137" vertex="1">
          <mxGeometry width="66" height="22" as="geometry" />
        </mxCell>
        <mxCell id="140" value="FK" style="shape=partialRectangle;connectable=0;fillColor=none;top=0;left=0;bottom=0;right=0;align=left;spacingLeft=2;overflow=hidden;fontSize=11;" parent="137" vertex="1">
          <mxGeometry width="22" height="22" as="geometry" />
        </mxCell>
        <mxCell id="141" value="Foreign Key to Project" style="shape=partialRectangle;connectable=0;fillColor=none;top=0;left=0;bottom=0;right=0;align=left;spacingLeft=2;overflow=hidden;fontSize=11;" parent="137" vertex="1">
          <mxGeometry width="156" height="22" as="geometry" />
        </mxCell>
        <mxCell id="142" style="shape=tableRow;horizontal=0;startSize=0;swimlaneHead=0;swimlaneBody=0;fillColor=none;collapsible=0;dropTarget=0;points=[[0,0.5],[1,0.5]];portConstraint=eastwest;top=0;left=0;right=0;bottom=0;" parent="121" vertex="1">
          <mxGeometry y="109" width="252" height="22" as="geometry" />
        </mxCell>
        <mxCell id="143" value="date" style="shape=partialRectangle;connectable=0;fillColor=none;top=0;left=0;bottom=0;right=0;align=left;spacingLeft=2;overflow=hidden;fontSize=11;" parent="142" vertex="1">
          <mxGeometry width="36" height="22" as="geometry" />
        </mxCell>
        <mxCell id="144" value="created_at" style="shape=partialRectangle;connectable=0;fillColor=none;top=0;left=0;bottom=0;right=0;align=left;spacingLeft=2;overflow=hidden;fontSize=11;" parent="142" vertex="1">
          <mxGeometry width="66" height="22" as="geometry" />
        </mxCell>
        <mxCell id="145" value="" style="shape=partialRectangle;connectable=0;fillColor=none;top=0;left=0;bottom=0;right=0;align=left;spacingLeft=2;overflow=hidden;fontSize=11;" parent="142" vertex="1">
          <mxGeometry width="22" height="22" as="geometry" />
        </mxCell>
        <mxCell id="146" value="Creation Date" style="shape=partialRectangle;connectable=0;fillColor=none;top=0;left=0;bottom=0;right=0;align=left;spacingLeft=2;overflow=hidden;fontSize=11;" parent="142" vertex="1">
          <mxGeometry width="156" height="22" as="geometry" />
        </mxCell>
        <mxCell id="147" style="shape=tableRow;horizontal=0;startSize=0;swimlaneHead=0;swimlaneBody=0;fillColor=none;collapsible=0;dropTarget=0;points=[[0,0.5],[1,0.5]];portConstraint=eastwest;top=0;left=0;right=0;bottom=0;" parent="121" vertex="1">
          <mxGeometry y="131" width="252" height="22" as="geometry" />
        </mxCell>
        <mxCell id="148" value="date" style="shape=partialRectangle;connectable=0;fillColor=none;top=0;left=0;bottom=0;right=0;align=left;spacingLeft=2;overflow=hidden;fontSize=11;" parent="147" vertex="1">
          <mxGeometry width="36" height="22" as="geometry" />
        </mxCell>
        <mxCell id="149" value="updated_at" style="shape=partialRectangle;connectable=0;fillColor=none;top=0;left=0;bottom=0;right=0;align=left;spacingLeft=2;overflow=hidden;fontSize=11;" parent="147" vertex="1">
          <mxGeometry width="66" height="22" as="geometry" />
        </mxCell>
        <mxCell id="150" value="" style="shape=partialRectangle;connectable=0;fillColor=none;top=0;left=0;bottom=0;right=0;align=left;spacingLeft=2;overflow=hidden;fontSize=11;" parent="147" vertex="1">
          <mxGeometry width="22" height="22" as="geometry" />
        </mxCell>
        <mxCell id="151" value="Last Update Date" style="shape=partialRectangle;connectable=0;fillColor=none;top=0;left=0;bottom=0;right=0;align=left;spacingLeft=2;overflow=hidden;fontSize=11;" parent="147" vertex="1">
          <mxGeometry width="156" height="22" as="geometry" />
        </mxCell>
        <mxCell id="152" value="Task" style="shape=table;startSize=25;container=1;collapsible=0;childLayout=tableLayout;fixedRows=1;rowLines=1;fontStyle=1;align=center;resizeLast=1;" parent="1" vertex="1">
          <mxGeometry x="536" y="766" width="250" height="178" as="geometry" />
        </mxCell>
        <mxCell id="153" style="shape=tableRow;horizontal=0;startSize=0;swimlaneHead=0;swimlaneBody=0;fillColor=none;collapsible=0;dropTarget=0;points=[[0,0.5],[1,0.5]];portConstraint=eastwest;top=0;left=0;right=0;bottom=0;" parent="152" vertex="1">
          <mxGeometry y="22" width="237" height="22" as="geometry" />
        </mxCell>
        <mxCell id="154" value="int" style="shape=partialRectangle;connectable=0;fillColor=none;top=0;left=0;bottom=0;right=0;align=left;spacingLeft=2;overflow=hidden;fontSize=11;" parent="153" vertex="1">
          <mxGeometry width="36" height="22" as="geometry" />
        </mxCell>
        <mxCell id="155" value="id" style="shape=partialRectangle;connectable=0;fillColor=none;top=0;left=0;bottom=0;right=0;align=left;spacingLeft=2;overflow=hidden;fontSize=11;" parent="153" vertex="1">
          <mxGeometry width="60" height="22" as="geometry" />
        </mxCell>
        <mxCell id="156" value="PK" style="shape=partialRectangle;connectable=0;fillColor=none;top=0;left=0;bottom=0;right=0;align=left;spacingLeft=2;overflow=hidden;fontSize=11;" parent="153" vertex="1">
          <mxGeometry width="22" height="22" as="geometry" />
        </mxCell>
        <mxCell id="157" value="Primary Key" style="shape=partialRectangle;connectable=0;fillColor=none;top=0;left=0;bottom=0;right=0;align=left;spacingLeft=2;overflow=hidden;fontSize=11;" parent="153" vertex="1">
          <mxGeometry width="132" height="22" as="geometry" />
        </mxCell>
        <mxCell id="158" style="shape=tableRow;horizontal=0;startSize=0;swimlaneHead=0;swimlaneBody=0;fillColor=none;collapsible=0;dropTarget=0;points=[[0,0.5],[1,0.5]];portConstraint=eastwest;top=0;left=0;right=0;bottom=0;" parent="152" vertex="1">
          <mxGeometry y="44" width="237" height="22" as="geometry" />
        </mxCell>
        <mxCell id="159" value="string" style="shape=partialRectangle;connectable=0;fillColor=none;top=0;left=0;bottom=0;right=0;align=left;spacingLeft=2;overflow=hidden;fontSize=11;" parent="158" vertex="1">
          <mxGeometry width="36" height="22" as="geometry" />
        </mxCell>
        <mxCell id="160" value="title" style="shape=partialRectangle;connectable=0;fillColor=none;top=0;left=0;bottom=0;right=0;align=left;spacingLeft=2;overflow=hidden;fontSize=11;" parent="158" vertex="1">
          <mxGeometry width="60" height="22" as="geometry" />
        </mxCell>
        <mxCell id="161" value="" style="shape=partialRectangle;connectable=0;fillColor=none;top=0;left=0;bottom=0;right=0;align=left;spacingLeft=2;overflow=hidden;fontSize=11;" parent="158" vertex="1">
          <mxGeometry width="22" height="22" as="geometry" />
        </mxCell>
        <mxCell id="162" value="Task Title" style="shape=partialRectangle;connectable=0;fillColor=none;top=0;left=0;bottom=0;right=0;align=left;spacingLeft=2;overflow=hidden;fontSize=11;" parent="158" vertex="1">
          <mxGeometry width="132" height="22" as="geometry" />
        </mxCell>
        <mxCell id="163" style="shape=tableRow;horizontal=0;startSize=0;swimlaneHead=0;swimlaneBody=0;fillColor=none;collapsible=0;dropTarget=0;points=[[0,0.5],[1,0.5]];portConstraint=eastwest;top=0;left=0;right=0;bottom=0;" parent="152" vertex="1">
          <mxGeometry y="66" width="237" height="22" as="geometry" />
        </mxCell>
        <mxCell id="164" value="string" style="shape=partialRectangle;connectable=0;fillColor=none;top=0;left=0;bottom=0;right=0;align=left;spacingLeft=2;overflow=hidden;fontSize=11;" parent="163" vertex="1">
          <mxGeometry width="36" height="22" as="geometry" />
        </mxCell>
        <mxCell id="165" value="status" style="shape=partialRectangle;connectable=0;fillColor=none;top=0;left=0;bottom=0;right=0;align=left;spacingLeft=2;overflow=hidden;fontSize=11;" parent="163" vertex="1">
          <mxGeometry width="60" height="22" as="geometry" />
        </mxCell>
        <mxCell id="166" value="" style="shape=partialRectangle;connectable=0;fillColor=none;top=0;left=0;bottom=0;right=0;align=left;spacingLeft=2;overflow=hidden;fontSize=11;" parent="163" vertex="1">
          <mxGeometry width="22" height="22" as="geometry" />
        </mxCell>
        <mxCell id="167" value="Task Status" style="shape=partialRectangle;connectable=0;fillColor=none;top=0;left=0;bottom=0;right=0;align=left;spacingLeft=2;overflow=hidden;fontSize=11;" parent="163" vertex="1">
          <mxGeometry width="132" height="22" as="geometry" />
        </mxCell>
        <mxCell id="168" style="shape=tableRow;horizontal=0;startSize=0;swimlaneHead=0;swimlaneBody=0;fillColor=none;collapsible=0;dropTarget=0;points=[[0,0.5],[1,0.5]];portConstraint=eastwest;top=0;left=0;right=0;bottom=0;" parent="152" vertex="1">
          <mxGeometry y="87" width="237" height="22" as="geometry" />
        </mxCell>
        <mxCell id="169" value="int" style="shape=partialRectangle;connectable=0;fillColor=none;top=0;left=0;bottom=0;right=0;align=left;spacingLeft=2;overflow=hidden;fontSize=11;" parent="168" vertex="1">
          <mxGeometry width="36" height="22" as="geometry" />
        </mxCell>
        <mxCell id="170" value="feature_id" style="shape=partialRectangle;connectable=0;fillColor=none;top=0;left=0;bottom=0;right=0;align=left;spacingLeft=2;overflow=hidden;fontSize=11;" parent="168" vertex="1">
          <mxGeometry width="60" height="22" as="geometry" />
        </mxCell>
        <mxCell id="171" value="FK" style="shape=partialRectangle;connectable=0;fillColor=none;top=0;left=0;bottom=0;right=0;align=left;spacingLeft=2;overflow=hidden;fontSize=11;" parent="168" vertex="1">
          <mxGeometry width="22" height="22" as="geometry" />
        </mxCell>
        <mxCell id="172" value="Foreign Key to Feature" style="shape=partialRectangle;connectable=0;fillColor=none;top=0;left=0;bottom=0;right=0;align=left;spacingLeft=2;overflow=hidden;fontSize=11;" parent="168" vertex="1">
          <mxGeometry width="132" height="22" as="geometry" />
        </mxCell>
        <mxCell id="173" style="shape=tableRow;horizontal=0;startSize=0;swimlaneHead=0;swimlaneBody=0;fillColor=none;collapsible=0;dropTarget=0;points=[[0,0.5],[1,0.5]];portConstraint=eastwest;top=0;left=0;right=0;bottom=0;" parent="152" vertex="1">
          <mxGeometry y="109" width="237" height="22" as="geometry" />
        </mxCell>
        <mxCell id="174" value="int" style="shape=partialRectangle;connectable=0;fillColor=none;top=0;left=0;bottom=0;right=0;align=left;spacingLeft=2;overflow=hidden;fontSize=11;" parent="173" vertex="1">
          <mxGeometry width="36" height="22" as="geometry" />
        </mxCell>
        <mxCell id="175" value="user_id" style="shape=partialRectangle;connectable=0;fillColor=none;top=0;left=0;bottom=0;right=0;align=left;spacingLeft=2;overflow=hidden;fontSize=11;" parent="173" vertex="1">
          <mxGeometry width="60" height="22" as="geometry" />
        </mxCell>
        <mxCell id="176" value="FK" style="shape=partialRectangle;connectable=0;fillColor=none;top=0;left=0;bottom=0;right=0;align=left;spacingLeft=2;overflow=hidden;fontSize=11;" parent="173" vertex="1">
          <mxGeometry width="22" height="22" as="geometry" />
        </mxCell>
        <mxCell id="177" value="Foreign Key to User" style="shape=partialRectangle;connectable=0;fillColor=none;top=0;left=0;bottom=0;right=0;align=left;spacingLeft=2;overflow=hidden;fontSize=11;" parent="173" vertex="1">
          <mxGeometry width="132" height="22" as="geometry" />
        </mxCell>
        <mxCell id="178" style="shape=tableRow;horizontal=0;startSize=0;swimlaneHead=0;swimlaneBody=0;fillColor=none;collapsible=0;dropTarget=0;points=[[0,0.5],[1,0.5]];portConstraint=eastwest;top=0;left=0;right=0;bottom=0;" parent="152" vertex="1">
          <mxGeometry y="131" width="237" height="22" as="geometry" />
        </mxCell>
        <mxCell id="179" value="date" style="shape=partialRectangle;connectable=0;fillColor=none;top=0;left=0;bottom=0;right=0;align=left;spacingLeft=2;overflow=hidden;fontSize=11;" parent="178" vertex="1">
          <mxGeometry width="36" height="22" as="geometry" />
        </mxCell>
        <mxCell id="180" value="created_at" style="shape=partialRectangle;connectable=0;fillColor=none;top=0;left=0;bottom=0;right=0;align=left;spacingLeft=2;overflow=hidden;fontSize=11;" parent="178" vertex="1">
          <mxGeometry width="60" height="22" as="geometry" />
        </mxCell>
        <mxCell id="181" value="" style="shape=partialRectangle;connectable=0;fillColor=none;top=0;left=0;bottom=0;right=0;align=left;spacingLeft=2;overflow=hidden;fontSize=11;" parent="178" vertex="1">
          <mxGeometry width="22" height="22" as="geometry" />
        </mxCell>
        <mxCell id="182" value="Creation Date" style="shape=partialRectangle;connectable=0;fillColor=none;top=0;left=0;bottom=0;right=0;align=left;spacingLeft=2;overflow=hidden;fontSize=11;" parent="178" vertex="1">
          <mxGeometry width="132" height="22" as="geometry" />
        </mxCell>
        <mxCell id="183" style="shape=tableRow;horizontal=0;startSize=0;swimlaneHead=0;swimlaneBody=0;fillColor=none;collapsible=0;dropTarget=0;points=[[0,0.5],[1,0.5]];portConstraint=eastwest;top=0;left=0;right=0;bottom=0;" parent="152" vertex="1">
          <mxGeometry y="153" width="237" height="22" as="geometry" />
        </mxCell>
        <mxCell id="184" value="date" style="shape=partialRectangle;connectable=0;fillColor=none;top=0;left=0;bottom=0;right=0;align=left;spacingLeft=2;overflow=hidden;fontSize=11;" parent="183" vertex="1">
          <mxGeometry width="36" height="22" as="geometry" />
        </mxCell>
        <mxCell id="185" value="updated_at" style="shape=partialRectangle;connectable=0;fillColor=none;top=0;left=0;bottom=0;right=0;align=left;spacingLeft=2;overflow=hidden;fontSize=11;" parent="183" vertex="1">
          <mxGeometry width="60" height="22" as="geometry" />
        </mxCell>
        <mxCell id="186" value="" style="shape=partialRectangle;connectable=0;fillColor=none;top=0;left=0;bottom=0;right=0;align=left;spacingLeft=2;overflow=hidden;fontSize=11;" parent="183" vertex="1">
          <mxGeometry width="22" height="22" as="geometry" />
        </mxCell>
        <mxCell id="187" value="Last Update Date" style="shape=partialRectangle;connectable=0;fillColor=none;top=0;left=0;bottom=0;right=0;align=left;spacingLeft=2;overflow=hidden;fontSize=11;" parent="183" vertex="1">
          <mxGeometry width="132" height="22" as="geometry" />
        </mxCell>
        <mxCell id="188" value="contains" style="curved=1;startArrow=ERmandOne;startSize=10;;endArrow=ERzeroToMany;endSize=10;;exitX=0.45;exitY=1;entryX=0.45;entryY=0;" parent="1" source="2" target="28" edge="1">
          <mxGeometry relative="1" as="geometry">
            <Array as="points" />
          </mxGeometry>
        </mxCell>
        <mxCell id="189" value="includes" style="curved=1;startArrow=ERmandOne;startSize=10;;endArrow=ERzeroToMany;endSize=10;;exitX=0;exitY=0.83;entryX=0.47;entryY=0;" parent="1" source="28" target="59" edge="1">
          <mxGeometry relative="1" as="geometry">
            <Array as="points">
              <mxPoint x="138" y="460" />
            </Array>
          </mxGeometry>
        </mxCell>
        <mxCell id="190" value="contains" style="curved=1;startArrow=ERmandOne;startSize=10;;endArrow=ERzeroToMany;endSize=10;;exitX=0.9;exitY=0.82;entryX=0.46;entryY=0;" parent="1" source="28" target="90" edge="1">
          <mxGeometry relative="1" as="geometry">
            <Array as="points">
              <mxPoint x="829" y="460" />
            </Array>
          </mxGeometry>
        </mxCell>
        <mxCell id="191" value="contains" style="curved=1;startArrow=ERmandOne;startSize=10;;endArrow=ERzeroToMany;endSize=10;;exitX=0.45;exitY=1;entryX=0.45;entryY=0;" parent="1" source="28" target="121" edge="1">
          <mxGeometry relative="1" as="geometry">
            <Array as="points" />
          </mxGeometry>
        </mxCell>
        <mxCell id="192" value="encompasses" style="curved=1;startArrow=ERmandOne;startSize=10;;endArrow=ERzeroToMany;endSize=10;;exitX=0.45;exitY=1;entryX=0.03;entryY=0;" parent="1" source="121" target="152" edge="1">
          <mxGeometry relative="1" as="geometry">
            <Array as="points">
              <mxPoint x="481" y="716" />
            </Array>
          </mxGeometry>
        </mxCell>
        <mxCell id="193" value="assigned_to" style="curved=1;startArrow=ERmandOne;startSize=10;;endArrow=ERzeroToMany;endSize=10;;exitX=0.46;exitY=1;entryX=0.92;entryY=0;" parent="1" source="90" target="152" edge="1">
          <mxGeometry relative="1" as="geometry">
            <Array as="points">
              <mxPoint x="829" y="716" />
            </Array>
          </mxGeometry>
        </mxCell>
      </root>
    </mxGraphModel>
  </diagram>
</mxfile>
